<svg xmlns="http://www.w3.org/2000/svg" width="14.909" height="7.237" viewBox="0 0 14.909 7.237">
  <g id="Group_11750" data-name="Group 11750" transform="translate(-28.88 -232.816)">
    <path id="Path_792" data-name="Path 792" d="M122.829-426.589c-.109,0-.333.018-.5.031a.949.949,0,0,0-.458.1,1.127,1.127,0,0,0-.44.4c-.091.178-.24.451-.287.533l-.051.091-.064-.047a.772.772,0,0,0-.5-.042c-.269.027-.315.064-.315.251,0,.116.007.133.069.184a.221.221,0,0,0,.162.058c.053,0,.158.007.233.013l.138.016-.133.069a1.106,1.106,0,0,0-.513.535l-.056.111-.007.893c-.007,1.006,0,1.024.138,1.075l.08.029v.5l.087.093.089.093.28.007c.318.009.375-.007.478-.122.064-.073.067-.08.067-.318v-.244h.8c.746,0,.8,0,.8-.04,0-.02.007-.182.009-.36a1.463,1.463,0,0,1,.269-.962l.076-.107-.078-.08a.62.62,0,0,1-.111-.6.438.438,0,0,1,.255-.289c.1-.051.144-.058.5-.069l.384-.013.093-.175c.08-.151.087-.176.056-.189-.053-.02-2.2.011-2.695.038-.224.013-.411.02-.415.016a4.53,4.53,0,0,1,.282-.553c.06-.107.109-.2.109-.207a.913.913,0,0,1,.073-.12.745.745,0,0,1,.638-.338c.307-.031,2.173-.031,2.519,0s.475.082.629.26l.1.12.144-.013c.082-.009.149-.018.153-.02.022-.018-.1-.18-.215-.3a.878.878,0,0,0-.68-.289C124.751-426.582,123.178-426.6,122.829-426.589Zm-2.03,2.328.5.093c.315.06.338.067.413.142.131.127.169.333.078.42l-.053.049-.562-.018c-.724-.024-.731-.027-.731-.407,0-.187,0-.2.06-.255S120.584-424.3,120.8-424.261Z" transform="translate(-90.883 659.774)" fill="none" stroke="#e31e39" stroke-width="0.7"/>
    <path id="Path_793" data-name="Path 793" d="M499.875-426.589c-.1,0-.318.018-.475.031a.959.959,0,0,0-.447.1.913.913,0,0,0-.287.211c-.129.14-.2.258-.173.273a.711.711,0,0,0,.147.027l.129.016.109-.122a.776.776,0,0,1,.575-.262c.3-.031,2.175-.031,2.519,0a1.441,1.441,0,0,1,.4.073,1,1,0,0,1,.42.469c.051.1.1.191.109.2a4.021,4.021,0,0,1,.235.471s-.207,0-.449-.016c-.513-.029-2.608-.058-2.661-.038-.029.011-.02.04.056.189l.091.175.389.013c.429.016.52.04.653.18a.624.624,0,0,1-.013.773l-.08.082.076.107a1.813,1.813,0,0,1,.282,1.242v.12h1.6v.242c0,.229,0,.247.058.313.1.116.158.133.442.133s.344-.018.442-.133c.056-.067.058-.084.058-.311v-.242l.08-.038c.144-.069.144-.08.138-1.082l-.007-.893-.056-.111a1.076,1.076,0,0,0-.52-.538l-.129-.062.1-.016a2.273,2.273,0,0,1,.235-.016c.113,0,.149-.011.2-.06s.069-.071.069-.176c0-.189-.051-.231-.3-.26a.832.832,0,0,0-.513.042l-.067.049-.069-.127c-.062-.113-.178-.331-.267-.5a1.231,1.231,0,0,0-.429-.4.807.807,0,0,0-.427-.1C501.836-426.582,500.217-426.6,499.875-426.589Zm4,2.33c.082.042.091.069.091.289,0,.351-.024.367-.6.391-.691.029-.684.029-.746-.036s-.071-.162-.013-.289c.073-.162.138-.2.493-.262l.486-.091C503.807-424.3,503.8-424.3,503.871-424.259Z" transform="translate(-460.853 659.774)" fill="none" stroke="#e31e39" stroke-width="0.7"/>
    <path id="Path_794" data-name="Path 794" d="M262.986-386.552c-.227.011-.487.029-.578.04a1.023,1.023,0,0,0-.622.313,2.867,2.867,0,0,0-.484.78c-.042.08-.078.147-.08.149a.405.405,0,0,1-.116-.049.5.5,0,0,0-.2-.056,2.466,2.466,0,0,0-.6.08.341.341,0,0,0-.084.293c.029.158.084.182.507.218l.176.016-.131.064a2.1,2.1,0,0,0-.227.14,1.586,1.586,0,0,0-.38.493l-.056.129-.007,1c-.007,1.126-.009,1.115.158,1.2l.082.042v.255c0,.236,0,.267.056.351.08.138.169.167.518.167.478,0,.54-.058.56-.5l.011-.267h5.22l.011.267c.02.444.082.5.566.5.358,0,.447-.031.52-.182a.68.68,0,0,0,.047-.344v-.247l.084-.042c.162-.08.162-.069.155-1.184l-.007-.989-.056-.14a1.313,1.313,0,0,0-.609-.644l-.124-.064.267-.024a1.091,1.091,0,0,0,.322-.062.317.317,0,0,0,.024-.42c-.053-.053-.127-.067-.5-.091-.2-.011-.218-.009-.322.044a.658.658,0,0,1-.113.051s-.047-.084-.1-.182a2.269,2.269,0,0,0-.6-.866,1.158,1.158,0,0,0-.709-.211C265.132-386.563,263.5-386.576,262.986-386.552Zm2.648.318a.881.881,0,0,1,.344.093.97.97,0,0,1,.331.34c.027.044.08.147.124.227.3.564.375.711.335.711-.022,0-.255-.016-.518-.036-.766-.053-2.93-.067-3.832-.022-.4.02-.8.042-.886.051l-.151.013.156-.3c.087-.164.2-.382.255-.486.255-.48.4-.569,1.015-.62C263.191-386.294,265.352-386.274,265.634-386.234Zm-4.647,2.313.533.1c.271.051.34.078.413.16a.669.669,0,0,1,.12.307.2.2,0,0,1-.111.178,9.574,9.574,0,0,1-1.337-.047c-.1-.051-.129-.151-.129-.393,0-.224,0-.231.064-.3C260.62-383.988,260.636-383.988,260.987-383.922Zm6.667.011c.062.064.064.071.064.3,0,.242-.033.342-.127.393-.022.011-.322.031-.666.047-.684.027-.715.022-.764-.093a.509.509,0,0,1,.109-.4c.1-.093.06-.082.915-.247C267.554-383.988,267.576-383.988,267.654-383.911Z" transform="translate(-227.763 620.634)" fill="none" stroke="#e31e39" stroke-width="0.7"/>
  </g>
</svg>
