<svg xmlns="http://www.w3.org/2000/svg" width="16.7" height="8.491" viewBox="0 0 16.7 8.491">
  <g id="Group_11633" data-name="Group 11633" transform="translate(-30.65 -310.171)">
    <path id="Path_466" data-name="Path 466" d="M112.941,812.575a1.948,1.948,0,1,0-1.948-1.948A1.947,1.947,0,0,0,112.941,812.575Zm0,.974c-1.3,0-3.9.654-3.9,1.948v.974h7.791V815.5C116.836,814.2,114.242,813.549,112.941,813.549Z" transform="translate(-73.98 -498.159)" fill="none" stroke="#e31e39" stroke-linecap="round" stroke-linejoin="round" stroke-width="0.7"/>
    <path id="Path_467" data-name="Path 467" d="M123.6,815.01a1.461,1.461,0,1,0-1.461-1.461A1.461,1.461,0,0,0,123.6,815.01Zm-1.3,2.922h4.222V817.2c0-.972-1.947-1.461-2.922-1.461a5.392,5.392,0,0,0-1.63.293" transform="translate(-79.518 -499.62)" fill="none" stroke="#e31e39" stroke-linecap="round" stroke-linejoin="round" stroke-width="0.7"/>
    <path id="Path_468" data-name="Path 468" d="M106.315,813.549a1.461,1.461,0,1,0-1.461,1.461A1.461,1.461,0,0,0,106.315,813.549Zm.169,2.484a5.4,5.4,0,0,0-1.63-.293c-.975,0-2.922.489-2.922,1.461v.731h4.222" transform="translate(-70.932 -499.62)" fill="none" stroke="#e31e39" stroke-linecap="round" stroke-linejoin="round" stroke-width="0.7"/>
  </g>
</svg>
