<svg xmlns="http://www.w3.org/2000/svg" width="150.775" height="43.672" viewBox="0 0 150.775 43.672">
  <g id="Group_11878" data-name="Group 11878" transform="translate(-587.884 -326.256)">
    <g id="Group_11400" data-name="Group 11400" transform="translate(587.884 326.256)">
      <g id="Group_11399" data-name="Group 11399">
        <path id="Path_11990" data-name="Path 11990" d="M615.894,369.144a13.4,13.4,0,0,1-7.543-2.3c-.093-.061-.187-.121-.276-.187q-.382-.271-.746-.57c.148-.267.3-.534.452-.8a44.4,44.4,0,0,1,15.953-16.033l.01-.006c.16-.094.322-.188.484-.279a48.122,48.122,0,0,0-23.873,22,20.891,20.891,0,0,0,2.023,1.808.26.26,0,0,0,.047.037c.484.38.986.742,1.5,1.081a21.832,21.832,0,0,0,29.129-4.772l-5.944-5.945A13.528,13.528,0,0,1,615.894,369.144Z" transform="translate(-592.022 -333.791)" fill="#e31e39"/>
        <path id="Path_11991" data-name="Path 11991" d="M594.56,361.793q-2.016,1.87-3.85,3.924-1.475,1.652-2.827,3.411A25.593,25.593,0,0,0,590.412,374q1.048-1.83,2.229-3.569a56.124,56.124,0,0,1,4.631-5.93Z" transform="translate(-587.884 -338.046)" fill="#e31e39"/>
        <path id="Path_11992" data-name="Path 11992" d="M602.179,355.813q-1.318,1.036-2.572,2.142l2.611,2.612c.093-.1.186-.2.28-.3a56.179,56.179,0,0,1,5.151-4.742l-2.146-2.146Q603.8,354.541,602.179,355.813Z" transform="translate(-591.773 -335.256)" fill="#e31e39"/>
        <path id="Path_11993" data-name="Path 11993" d="M617.062,349.544l-1.711-1.711q-2.539,1.3-4.931,2.833l2.049,2.049Q614.681,351.019,617.062,349.544Z" transform="translate(-595.361 -333.415)" fill="#e31e39"/>
        <path id="Path_11994" data-name="Path 11994" d="M626.5,344.747l-1.276-1.276q-2.671.968-5.219,2.186l1.613,1.613Q623.991,345.894,626.5,344.747Z" transform="translate(-598.542 -331.967)" fill="#e31e39"/>
        <path id="Path_11995" data-name="Path 11995" d="M648.19,338.19q-2.673.024-5.286.287a58.58,58.58,0,0,0-10.216,1.933q-1.222.345-2.42.742l1.173,1.173q1.277-.536,2.583-1.01h0a55.66,55.66,0,0,1,9.171-2.462q2.467-.441,5-.663Z" transform="translate(-601.946 -330.215)" fill="#e31e39"/>
        <path id="Path_11996" data-name="Path 11996" d="M601.214,341.065a61.5,61.5,0,0,1,14.244-6.224h0a61.2,61.2,0,0,1,12.622-2.309,21.836,21.836,0,0,0-37.156,15.558q0,.329.014.659A62.111,62.111,0,0,1,601.214,341.065Z" transform="translate(-588.894 -326.256)" fill="#e31e39"/>
      </g>
    </g>
    <g id="Group_11402" data-name="Group 11402" transform="translate(634.139 336.574)">
      <g id="Group_11401" data-name="Group 11401">
        <path id="Path_11997" data-name="Path 11997" d="M666.573,348.19h6.112l-1.372,2.916h-5.461a3.342,3.342,0,0,0-1.938.621,6.294,6.294,0,0,0-1.573,1.588,8.372,8.372,0,0,0-1.057,2.064,6.239,6.239,0,0,0-.38,2.039,3.183,3.183,0,0,0,.19,1.132,1.662,1.662,0,0,0,.591.786,1.754,1.754,0,0,0,1.042.286h5.842l-1.373,2.925h-3.547a8.393,8.393,0,0,1-2.931-.461,5.63,5.63,0,0,1-2.039-1.258A5.046,5.046,0,0,1,657.49,359a6.159,6.159,0,0,1-.386-2.174,7.62,7.62,0,0,1,.41-2.43,8.887,8.887,0,0,1,1.2-2.339,9.008,9.008,0,0,1,1.944-1.979,9.465,9.465,0,0,1,2.64-1.378A10.01,10.01,0,0,1,666.573,348.19Z" transform="translate(-657.105 -348.19)" fill="#171212"/>
        <path id="Path_11998" data-name="Path 11998" d="M681.79,348.2h4.269l-6.693,14.348H675.1Z" transform="translate(-663.074 -348.195)" fill="#171212"/>
        <path id="Path_11999" data-name="Path 11999" d="M704.648,348.19h2.114l-1.854,3.968h-4.088a2.048,2.048,0,0,0-1.282.351,2.283,2.283,0,0,0-.692.891l-4.338,9.148h-4.268l3.957-8.416a10.705,10.705,0,0,1,1.984-2.925,9,9,0,0,1,2.51-1.824,10.917,10.917,0,0,1,2.881-.927A17.754,17.754,0,0,1,704.648,348.19Zm-11.993.02h6.663q-.55.2-1.092.461a10.024,10.024,0,0,0-3.948,3.507H690.8Z" transform="translate(-668.099 -348.19)" fill="#171212"/>
        <path id="Path_12000" data-name="Path 12000" d="M716.18,348.235h4.248l-2.354,5.01a1.04,1.04,0,0,0-.11.471.829.829,0,0,0,.185.526.791.791,0,0,0,.656.235h1.5a2.973,2.973,0,0,0,1.849-.686,4.653,4.653,0,0,0,1.147-1.638l1.824-3.918H729.4l-1.873,4.018a12.49,12.49,0,0,1-1.292,2.239,6.486,6.486,0,0,1-2.089,1.818,9.142,9.142,0,0,1-3.461,1l-2.464,5.25h-4.269l2.615-5.571a3.811,3.811,0,0,1-1.8-1.348,3.426,3.426,0,0,1-.606-2,5.306,5.306,0,0,1,.521-2.184Z" transform="translate(-675.963 -348.205)" fill="#171212"/>
        <path id="Path_12001" data-name="Path 12001" d="M737.511,348.19h4.269l-4.589,10.2a.965.965,0,0,0-.07.351.824.824,0,0,0,.275.621.908.908,0,0,0,.646.261l6.543-10.29h3.687L746.9,358.39a1.183,1.183,0,0,0-.02.211,1.139,1.139,0,0,0,.235.716.761.761,0,0,0,.636.306l5.36-11.433h4.268l-6.733,14.358-2.434-.01a5.81,5.81,0,0,1-2.229-.381,3.9,3.9,0,0,1-1.487-1.042,4.133,4.133,0,0,1-.832-1.518,6.146,6.146,0,0,1-.261-1.8q0-.19.01-.371l-3.066,5.12-1.834-.01a6.94,6.94,0,0,1-2.845-.537,4.456,4.456,0,0,1-1.859-1.447,3.434,3.434,0,0,1-.656-2.054,4.575,4.575,0,0,1,.451-1.894Z" transform="translate(-682.336 -348.19)" fill="#171212"/>
        <path id="Path_12002" data-name="Path 12002" d="M775.3,348.19h5.771l-4.488,14.358H772.3l1.413-4.5H770.07l1.363-2.925h3.2l1.262-4.008h-1.864a2.727,2.727,0,0,0-1.383.361,2.043,2.043,0,0,0-.8.872q-.571,1.192-1.373,2.885t-1.592,3.362q-.792,1.668-1.874,3.953h-4.269l4.3-9.168a11.041,11.041,0,0,1,2.063-3.186,6,6,0,0,1,2.615-1.568A12.9,12.9,0,0,1,775.3,348.19Z" transform="translate(-692.151 -348.19)" fill="#171212"/>
        <path id="Path_12003" data-name="Path 12003" d="M792.634,348.235h4.248l-2.355,5.01a1.04,1.04,0,0,0-.11.471.829.829,0,0,0,.186.526.79.79,0,0,0,.656.235h1.5a2.971,2.971,0,0,0,1.848-.686,4.654,4.654,0,0,0,1.147-1.638l1.824-3.918h4.268l-1.874,4.018a12.409,12.409,0,0,1-1.292,2.239,6.489,6.489,0,0,1-2.089,1.818,9.145,9.145,0,0,1-3.461,1l-2.465,5.25H790.4l2.615-5.571a3.808,3.808,0,0,1-1.8-1.348,3.426,3.426,0,0,1-.606-2,5.315,5.315,0,0,1,.521-2.184Z" transform="translate(-701.329 -348.205)" fill="#171212"/>
      </g>
    </g>
    <g id="Group_11413" data-name="Group 11413" transform="translate(664.429 355.413)">
      <path id="Path_12019" data-name="Path 12019" d="M350.332,802.975h.741v3.438h1.668v.62h-2.409Z" transform="translate(-350.332 -802.903)" fill="#59605f"/>
      <path id="Path_12020" data-name="Path 12020" d="M379.855,802.975v4.058h-.741v-4.058Z" transform="translate(-375.78 -802.903)" fill="#59605f"/>
      <path id="Path_12021" data-name="Path 12021" d="M398.617,805.378c-.025-.524-.054-1.156-.048-1.7h-.018c-.133.495-.3,1.042-.481,1.553l-.6,1.758h-.566l-.542-1.734c-.156-.518-.3-1.073-.41-1.578h-.011c-.018.53-.043,1.174-.072,1.728l-.091,1.632h-.692l.271-4.058h.976l.529,1.632c.145.475.271.957.373,1.409h.018c.109-.439.247-.94.4-1.415l.559-1.626h.963l.236,4.058H398.7Z" transform="translate(-389.905 -802.903)" fill="#59605f"/>
      <path id="Path_12022" data-name="Path 12022" d="M444.122,804.409a1.917,1.917,0,0,1-1.939,2.138,1.878,1.878,0,0,1-1.871-2.065,1.949,1.949,0,0,1,1.933-2.131A1.874,1.874,0,0,1,444.122,804.409Zm-3.028.054c0,.831.416,1.487,1.126,1.487s1.119-.668,1.119-1.517c0-.765-.379-1.487-1.119-1.487S441.094,803.626,441.094,804.463Z" transform="translate(-429.889 -802.35)" fill="#59605f"/>
      <path id="Path_12023" data-name="Path 12023" d="M482.568,802.975v2.366c0,.8.331,1.162.831,1.162.536,0,.855-.367.855-1.162v-2.366h.74v2.318c0,1.253-.644,1.806-1.62,1.806-.939,0-1.547-.524-1.547-1.8v-2.324Z" transform="translate(-466.595 -802.903)" fill="#59605f"/>
      <path id="Path_12024" data-name="Path 12024" d="M518.278,805.721a2.038,2.038,0,0,0,.98.259c.47,0,.735-.223.735-.555,0-.307-.2-.487-.717-.674-.675-.242-1.1-.6-1.1-1.18,0-.669.555-1.168,1.439-1.168a2.122,2.122,0,0,1,.969.2l-.175.6a1.762,1.762,0,0,0-.812-.193c-.47,0-.669.247-.669.487,0,.313.236.458.777.669.7.265,1.042.62,1.042,1.2,0,.656-.493,1.222-1.535,1.222a2.338,2.338,0,0,1-1.1-.259Z" transform="translate(-498.674 -802.397)" fill="#59605f"/>
      <path id="Path_12025" data-name="Path 12025" d="M550.535,802.975v4.058h-.741v-4.058Z" transform="translate(-526.689 -802.903)" fill="#59605f"/>
      <path id="Path_12026" data-name="Path 12026" d="M566.6,807.033v-4.058h.849l1.048,1.74a12.039,12.039,0,0,1,.692,1.361h.012a16.642,16.642,0,0,1-.066-1.686v-1.415h.686v4.058h-.771L568,805.245a14.144,14.144,0,0,1-.723-1.4l-.024.006c.031.523.043,1.059.043,1.728v1.451Z" transform="translate(-541.553 -802.903)" fill="#59605f"/>
      <path id="Path_12027" data-name="Path 12027" d="M607.223,805.233h-1.529v1.191H607.4v.609h-2.451v-4.058h2.361v.609h-1.62v1.047h1.529Z" transform="translate(-575.459 -802.903)" fill="#59605f"/>
      <path id="Path_12028" data-name="Path 12028" d="M648.767,802.975h.741v3.438h1.668v.62h-2.409Z" transform="translate(-614.198 -802.903)" fill="#59605f"/>
      <path id="Path_12029" data-name="Path 12029" d="M677.549,802.975h.741v3.438h1.667v.62h-2.409Z" transform="translate(-639.646 -802.903)" fill="#59605f"/>
      <path id="Path_12030" data-name="Path 12030" d="M705.556,806.413a2.7,2.7,0,0,1-1.054.181,1.916,1.916,0,0,1-2.07-2.047,2.046,2.046,0,0,1,2.173-2.144,2.317,2.317,0,0,1,.982.18l-.157.59a2.011,2.011,0,0,0-.8-.156,1.35,1.35,0,0,0-1.42,1.492,1.326,1.326,0,0,0,1.414,1.464,2.241,2.241,0,0,0,.807-.145Z" transform="translate(-661.646 -802.397)" fill="#59605f"/>
    </g>
  </g>
</svg>
