<svg xmlns="http://www.w3.org/2000/svg" width="16.95" height="11.254" viewBox="0 0 16.95 11.254">
  <path id="Icon_ionic-md-people" data-name="Icon ionic-md-people" d="M13.125,12.147a2.137,2.137,0,1,0-2.175-2.136A2.162,2.162,0,0,0,13.125,12.147Zm-5.8,0A2.137,2.137,0,1,0,5.15,10.011,2.162,2.162,0,0,0,7.325,12.147Zm0,1.567c-1.7,0-5.075.819-5.075,2.492v1.923H12.5V16.206C12.5,14.533,9.029,13.714,7.325,13.714Zm5.8.392a3.869,3.869,0,0,0-.621.035,2.123,2.123,0,0,1,1.139,2.065v1.923H18.2V16.206C18.2,14.533,14.829,14.106,13.125,14.106Z" transform="translate(-1.75 -7.375)" fill="none" stroke="#e31e39" stroke-width="1"/>
</svg>
