<svg xmlns="http://www.w3.org/2000/svg" width="15.924" height="12.189" viewBox="0 0 15.924 12.189">
  <path id="Icon_awesome-car" data-name="Icon awesome-car" d="M14.568,7.763H12.824l-.485-1.212A3.247,3.247,0,0,0,9.309,4.5h-3.7a3.248,3.248,0,0,0-3.03,2.051L2.094,7.763H.35A.35.35,0,0,0,.011,8.2l.175.7a.349.349,0,0,0,.339.265H1.11a1.852,1.852,0,0,0-.643,1.4v1.4a1.85,1.85,0,0,0,.466,1.222v1.575a.932.932,0,0,0,.932.932H2.8a.932.932,0,0,0,.932-.932v-.932h7.459v.932a.933.933,0,0,0,.932.932h.932a.932.932,0,0,0,.932-.932V13.181a1.848,1.848,0,0,0,.466-1.222v-1.4a1.852,1.852,0,0,0-.643-1.4h.585a.349.349,0,0,0,.339-.265l.175-.7a.35.35,0,0,0-.339-.434ZM4.31,7.244a1.4,1.4,0,0,1,1.3-.879h3.7a1.4,1.4,0,0,1,1.3.879L11.189,8.7H3.73L4.31,7.244ZM2.8,11.953a.929.929,0,1,1,0-1.859,1.794,1.794,0,0,1,1.4,1.394C4.2,12.046,3.357,11.953,2.8,11.953Zm9.324,0c-.559,0-1.4.093-1.4-.465a1.794,1.794,0,0,1,1.4-1.394.929.929,0,1,1,0,1.859Z" transform="translate(0.503 -4)" fill="none" stroke="#e31e39" stroke-width="1"/>
</svg>
