<svg xmlns="http://www.w3.org/2000/svg" width="14" height="12.25" viewBox="0 0 14 12.25">
  <path id="Icon_awesome-list-alt" data-name="Icon awesome-list-alt" d="M12.688,14.5H1.313A1.312,1.312,0,0,1,0,13.188V3.563A1.312,1.312,0,0,1,1.313,2.25H12.688A1.312,1.312,0,0,1,14,3.563v9.625A1.312,1.312,0,0,1,12.688,14.5ZM3.5,4.656A1.094,1.094,0,1,0,4.594,5.75,1.094,1.094,0,0,0,3.5,4.656Zm0,2.625A1.094,1.094,0,1,0,4.594,8.375,1.094,1.094,0,0,0,3.5,7.281Zm0,2.625A1.094,1.094,0,1,0,4.594,11,1.094,1.094,0,0,0,3.5,9.906Zm7.875-3.719V5.313a.328.328,0,0,0-.328-.328H5.578a.328.328,0,0,0-.328.328v.875a.328.328,0,0,0,.328.328h5.469A.328.328,0,0,0,11.375,6.188Zm0,2.625V7.938a.328.328,0,0,0-.328-.328H5.578a.328.328,0,0,0-.328.328v.875a.328.328,0,0,0,.328.328h5.469A.328.328,0,0,0,11.375,8.813Zm0,2.625v-.875a.328.328,0,0,0-.328-.328H5.578a.328.328,0,0,0-.328.328v.875a.328.328,0,0,0,.328.328h5.469A.328.328,0,0,0,11.375,11.438Z" transform="translate(0 -2.25)" fill="#e31e39" opacity="0.8"/>
</svg>
