<svg xmlns="http://www.w3.org/2000/svg" width="13.943" height="10.166" viewBox="0 0 13.943 10.166">
  <path id="Icon_ionic-logo-model-s" data-name="Icon ionic-logo-model-s" d="M14.418,10.072a.118.118,0,0,1,.038-.216l.157-.033h0a1.764,1.764,0,0,0,.757-.16.333.333,0,0,0,.124-.242.561.561,0,0,0-.142-.328,1.679,1.679,0,0,0-.7-.183c-.228-.03-.257,0-.316.035s-.083.281-.092.443a.082.082,0,0,1-.062.074l-.012,0a.2.2,0,0,1-.231-.127,9.8,9.8,0,0,0-.573-1.43,1.7,1.7,0,0,0-.842-.857,6.854,6.854,0,0,0-1.271-.18,23.445,23.445,0,0,0-4.761,0,6.258,6.258,0,0,0-1.271.18,1.7,1.7,0,0,0-.842.857,10.483,10.483,0,0,0-.6,1.516.1.1,0,0,1-.112.062A.211.211,0,0,1,3.5,9.295c-.012-.148-.035-.316-.086-.346s-.089-.065-.316-.035a1.692,1.692,0,0,0-.7.183.574.574,0,0,0-.139.328.338.338,0,0,0,.124.245,1.712,1.712,0,0,0,.757.16h0l.157.033a.118.118,0,0,1,.038.216,4.649,4.649,0,0,0-.955.757,14.56,14.56,0,0,0-.121,1.835A23.873,23.873,0,0,0,2.428,15.4l.157.027c0,.035.021.387.059.627a.17.17,0,0,0,.183.163H4.74c.056,0,.151-.047.151-.109l.03-.5c.213,0,.095,0,.322,0,.733-.009.461-.222.8-.216s1.625.089,2.837.089,2.5-.083,2.837-.089.068.21.8.216c.228,0,.139,0,.352,0l.03.5c0,.062.095.109.151.109h1.877a.17.17,0,0,0,.183-.163c.038-.239.056-.588.059-.627l.16-.027A23.806,23.806,0,0,0,15.5,12.67a14.5,14.5,0,0,0-.121-1.835A4.672,4.672,0,0,0,14.418,10.072ZM4.955,8.488a2.8,2.8,0,0,1,.3-.508A.946.946,0,0,1,5.86,7.61a19.349,19.349,0,0,1,3.012-.216,19.349,19.349,0,0,1,3.012.216.946.946,0,0,1,.609.369,2.664,2.664,0,0,1,.3.508,3.96,3.96,0,0,1,.278.981c-.03.074.03.109-.361.077s-2.678-.062-3.833-.062-3.449.033-3.833.062-.334-.006-.361-.077A4.1,4.1,0,0,1,4.955,8.488ZM5.2,11.916c-.293,0-.881-.03-1.02-.035s-.26.112-.331.112-.754-.106-.828-.44a1.769,1.769,0,0,1-.018-.576.123.123,0,0,1,.112-.1,4.877,4.877,0,0,1,1.634.233,3.447,3.447,0,0,1,1.091.526.119.119,0,0,1-.05.213A3.874,3.874,0,0,1,5.2,11.916Zm6.218,2.157c-.375.05-1.729.065-2.548.065s-2.172-.015-2.548-.065-.881-.511-.544-.893c.225-.251.615-.4,1.445-.511a13.654,13.654,0,0,1,1.643-.127,13.654,13.654,0,0,1,1.643.127c.83.109,1.277.284,1.445.511C12.267,13.589,11.809,14.02,11.422,14.073Zm3.3-2.518c-.074.331-.757.44-.828.44s-.192-.115-.331-.112-.727.035-1.02.035a3.964,3.964,0,0,1-.591-.071.119.119,0,0,1-.05-.213,3.448,3.448,0,0,1,1.091-.526,4.868,4.868,0,0,1,1.634-.233.115.115,0,0,1,.112.1A1.769,1.769,0,0,1,14.723,11.555Z" transform="translate(-1.907 -6.4)" fill="none" stroke="#e31e39" stroke-width="0.7" opacity="0.92"/>
</svg>
