<svg xmlns="http://www.w3.org/2000/svg" width="13.237" height="16.308" viewBox="0 0 13.237 16.308">
  <path id="Path_772" data-name="Path 772" d="M56.9,6.988a3.8,3.8,0,1,0-4.16,0A6.63,6.63,0,0,0,48.2,13.271v1.023a2.015,2.015,0,0,0,2.013,2.013h9.211a2.015,2.015,0,0,0,2.013-2.013V13.271A6.63,6.63,0,0,0,56.9,6.988ZM51.97,3.8a2.849,2.849,0,1,1,2.849,2.849A2.852,2.852,0,0,1,51.97,3.8Zm2.849,3.8A5.673,5.673,0,0,1,60.164,11.4a2,2,0,0,0-.739-.141,1.505,1.505,0,0,0-.465.074,4.572,4.572,0,0,0-8.281,0,1.5,1.5,0,0,0-.465-.074,2,2,0,0,0-.739.141A5.673,5.673,0,0,1,54.819,7.608Zm-4.06,7.2a.546.546,0,0,1-.546.546,1.059,1.059,0,0,1-1.057-1.057V13.271a1.059,1.059,0,0,1,1.057-1.057.545.545,0,0,1,.546.546Zm3.582.546h-2.73a1.493,1.493,0,0,0,.1-.546V13.749H53.4a1.508,1.508,0,0,0,.945.945v.658Zm.478-1.535a.546.546,0,1,1,.546-.546A.546.546,0,0,1,54.819,13.817Zm.478,1.535v-.658a1.508,1.508,0,0,0,.945-.945h1.682v1.057a1.493,1.493,0,0,0,.1.546H55.3Zm2.627-2.593v.034H56.242a1.5,1.5,0,0,0-2.846,0H51.714V12.76a1.491,1.491,0,0,0-.252-.834,3.616,3.616,0,0,1,6.713,0,1.491,1.491,0,0,0-.252.834Zm2.559,1.535a1.059,1.059,0,0,1-1.057,1.057.546.546,0,0,1-.546-.546V12.76a.545.545,0,0,1,.546-.546,1.059,1.059,0,0,1,1.057,1.057Z" transform="translate(-48.2)" fill="#e31e39"/>
</svg>
